<?xml version="1.0" standalone="no"?>
<!DOCTYPE svg PUBLIC "-//W3C//DTD SVG 20010904//EN"
 "http://www.w3.org/TR/2001/REC-SVG-20010904/DTD/svg10.dtd">
<svg version="1.0" xmlns="http://www.w3.org/2000/svg"
 width="512.000000pt" height="512.000000pt" viewBox="0 0 512.000000 512.000000"
 preserveAspectRatio="xMidYMid meet">

<g transform="translate(0.000000,512.000000) scale(0.100000,-0.100000)"
fill="#182D51" stroke="none">
<path d="M570 5104 c-106 -29 -200 -109 -249 -213 l-26 -56 0 -2090 0 -2090
29 -60 c58 -117 166 -195 298 -216 36 -5 238 -8 466 -7 l404 3 19 24 c25 30
24 62 -2 95 l-20 26 -422 0 c-260 0 -436 4 -459 10 -54 15 -118 68 -144 120
l-23 45 -1 2049 0 2050 21 43 c26 55 88 107 142 122 31 9 350 11 1197 9 l1155
-3 5 -285 5 -286 32 -65 c39 -79 102 -140 181 -177 57 -27 59 -27 342 -32
l285 -5 5 -670 c3 -368 6 -671 8 -672 1 -1 9 -9 18 -17 25 -26 79 -20 104 11
20 26 21 28 18 712 -3 532 -6 695 -17 726 -19 59 -837 877 -896 897 -32 10
-275 13 -1230 15 -1023 2 -1198 0 -1245 -13z m2943 -842 c-212 -3 -269 7 -329
60 -73 64 -78 87 -82 328 l-3 215 300 -300 301 -300 -187 -3z"/>
<path d="M845 4240 c-10 -11 -18 -34 -18 -50 0 -16 8 -39 18 -50 18 -20 29
-20 666 -20 l648 0 20 26 c26 34 26 54 0 88 l-20 26 -648 0 c-637 0 -648 0
-666 -20z"/>
<path d="M857 3729 c-46 -27 -41 -105 9 -128 18 -8 364 -11 1263 -11 1238 0
1238 0 1265 21 33 26 36 79 6 109 -20 20 -33 20 -1272 20 -857 -1 -1259 -4
-1271 -11z"/>
<path d="M863 3268 c-48 -23 -51 -103 -4 -127 14 -8 407 -11 1268 -11 1243 0
1249 0 1271 20 32 30 30 82 -4 109 -27 21 -27 21 -1268 20 -847 0 -1248 -4
-1263 -11z"/>
<path d="M1603 2570 c-50 -26 -22 18 -408 -635 -170 -285 -312 -535 -316 -555
-10 -42 3 -97 31 -132 20 -26 200 -137 255 -158 48 -19 158 -14 210 9 40 18
75 19 75 4 0 -3 -16 -28 -36 -56 -72 -100 -90 -177 -62 -268 26 -89 134 -169
229 -169 44 0 46 -1 59 -39 29 -90 119 -159 219 -168 57 -5 59 -6 70 -42 15
-52 72 -115 127 -141 48 -22 120 -29 179 -16 27 5 33 1 59 -40 33 -53 108
-100 175 -109 58 -7 130 13 187 55 l43 31 103 -61 c117 -69 163 -84 230 -77
94 11 186 86 210 172 6 22 12 41 13 42 0 1 19 -4 40 -12 89 -32 192 -11 259
53 41 39 75 103 76 138 0 20 5 22 64 22 34 0 79 7 98 15 71 30 133 103 152
180 6 24 10 26 34 20 121 -34 263 43 303 164 16 51 6 154 -20 198 -11 20 -21
38 -21 40 0 3 18 16 41 31 36 22 48 25 92 19 122 -17 161 -7 307 81 84 50 110
71 129 104 47 84 51 75 -319 700 -249 419 -342 568 -368 588 -29 22 -46 27
-91 27 -51 0 -65 -6 -168 -68 -172 -104 -219 -176 -211 -318 4 -78 3 -79 -72
-79 -35 0 -84 14 -167 46 -166 65 -199 66 -400 15 l-161 -41 -79 38 c-74 35
-83 37 -173 37 -89 -1 -103 -4 -220 -49 -108 -41 -132 -48 -180 -44 -31 2 -74
13 -96 24 -38 21 -39 22 -46 89 -13 136 -62 196 -243 299 -103 59 -151 67
-212 36z m173 -185 c50 -30 99 -66 108 -80 23 -36 31 -87 18 -124 -12 -35
-491 -848 -530 -900 -31 -41 -84 -65 -130 -57 -38 6 -225 113 -220 126 13 34
645 1090 653 1090 5 0 50 -25 101 -55z m2585 -488 c176 -296 319 -544 319
-550 0 -16 -173 -115 -215 -123 -25 -4 -47 0 -78 15 -41 20 -54 37 -181 250
-75 126 -143 232 -152 235 -50 19 -104 -14 -104 -64 0 -26 83 -176 241 -436
l18 -30 -54 -31 -54 -32 -517 306 c-370 219 -525 306 -547 306 -40 0 -63 -29
-70 -92 -8 -63 -28 -103 -70 -135 -32 -24 -111 -49 -122 -38 -9 10 -5 356 5
394 13 44 51 93 90 113 38 20 302 85 344 85 19 0 88 -21 153 -46 138 -53 235
-66 316 -41 l48 15 25 -41 c15 -23 33 -48 42 -54 22 -18 72 -16 94 4 31 28 22
73 -37 176 -47 81 -55 103 -55 146 0 41 5 56 28 81 32 36 181 129 201 127 7
-1 157 -244 332 -540z m-1684 162 l31 -10 -34 -56 c-18 -31 -37 -72 -41 -92
-5 -20 -8 -130 -8 -246 0 -194 2 -213 21 -245 32 -55 77 -80 145 -80 116 0
223 63 281 167 l30 53 32 -19 c17 -10 243 -143 501 -296 259 -153 478 -287
487 -299 20 -23 24 -87 8 -117 -13 -23 -61 -49 -91 -49 -12 0 -63 24 -113 53
-50 30 -210 124 -356 210 -146 87 -275 157 -288 157 -30 0 -72 -43 -72 -73 0
-14 8 -34 18 -45 9 -11 130 -86 267 -166 138 -81 262 -161 278 -177 37 -40 37
-88 -2 -131 -49 -55 -82 -48 -252 53 -79 48 -199 119 -267 159 -82 49 -134 73
-154 73 -61 0 -91 -79 -45 -120 12 -11 105 -70 207 -131 102 -60 193 -118 202
-128 56 -63 10 -164 -74 -164 -32 0 -74 21 -224 110 -193 114 -229 127 -266
93 -24 -21 -24 -85 0 -104 9 -9 55 -37 101 -65 64 -37 87 -57 98 -83 19 -44 9
-84 -29 -116 -45 -38 -78 -33 -189 32 l-98 56 16 31 c27 53 29 144 3 204 -27
62 -91 123 -148 140 l-40 12 10 42 c12 55 2 111 -30 171 -42 78 -126 127 -218
127 -33 0 -44 4 -44 15 0 27 -37 88 -72 121 -88 84 -209 94 -310 28 l-38 -24
-43 43 c-71 72 -165 93 -265 61 -101 -33 -102 -35 154 396 129 217 240 394
247 393 6 -1 46 -14 87 -29 106 -37 177 -31 336 29 152 57 170 60 251 36z
m-916 -988 c44 -44 40 -87 -16 -170 -77 -114 -106 -141 -155 -141 -57 0 -100
41 -100 98 0 32 12 55 65 130 36 50 73 96 83 101 9 6 34 11 55 11 29 0 45 -7
68 -29z m395 -55 c58 -58 52 -78 -81 -264 -63 -88 -127 -170 -141 -181 -32
-25 -81 -27 -113 -5 -29 21 -54 79 -45 107 11 38 245 358 267 367 45 18 78 11
113 -24z m287 -200 c32 -29 43 -71 30 -105 -5 -14 -61 -97 -124 -185 -118
-165 -152 -195 -201 -183 -65 17 -104 87 -78 138 26 50 223 320 247 339 36 28
93 26 126 -4z m200 -347 c43 -47 38 -90 -24 -174 -28 -39 -60 -75 -72 -82 -64
-36 -146 13 -147 86 0 36 58 138 103 178 43 40 97 37 140 -8z"/>
</g>
</svg>
