<?xml version="1.0" standalone="no"?>
<!DOCTYPE svg PUBLIC "-//W3C//DTD SVG 20010904//EN"
 "http://www.w3.org/TR/2001/REC-SVG-20010904/DTD/svg10.dtd">
<svg version="1.0" xmlns="http://www.w3.org/2000/svg"
 width="512.000000pt" height="512.000000pt" viewBox="0 0 512.000000 512.000000"
 preserveAspectRatio="xMidYMid meet">

<g transform="translate(0.000000,512.000000) scale(0.100000,-0.100000)"
fill="#000000" stroke="none">
<path d="M740 4551 c-69 -21 -122 -66 -156 -131 -23 -44 -33 -245 -14 -289 24
-60 112 -63 139 -5 6 14 11 70 11 125 0 93 2 102 25 124 l24 25 1015 0 1015 0
3 -232 c3 -216 5 -236 25 -273 25 -47 64 -85 113 -111 31 -17 64 -19 268 -22
l232 -3 0 -395 0 -395 25 -24 c32 -33 78 -33 110 0 l25 24 0 453 0 453 -343
342 -342 343 -1075 -1 c-591 0 -1086 -4 -1100 -8z m2405 -451 l180 -180 -158
0 c-154 0 -158 1 -182 25 -24 24 -25 28 -25 180 0 85 1 155 3 155 1 0 83 -81
182 -180z"/>
<path d="M1083 4068 c-12 -6 -27 -23 -34 -39 -15 -37 2 -82 37 -98 18 -8 213
-11 674 -11 461 0 656 3 674 11 55 26 55 112 0 138 -34 15 -1319 14 -1351 -1z"/>
<path d="M603 3908 c-55 -27 -50 -114 8 -138 89 -37 151 99 63 139 -30 13 -42
13 -71 -1z"/>
<path d="M603 3588 c-12 -6 -26 -22 -32 -37 -8 -18 -11 -434 -9 -1421 l3
-1395 22 -40 c25 -47 64 -85 113 -111 34 -18 87 -19 1380 -19 l1345 0 40 22
c47 25 85 64 111 113 17 30 19 63 22 246 3 211 3 211 -21 239 -33 38 -81 39
-114 1 -22 -26 -23 -32 -23 -222 0 -194 0 -195 -25 -219 l-24 -25 -1311 0
-1311 0 -24 25 -25 24 0 1380 c0 990 -3 1387 -11 1404 -11 24 -48 48 -72 46
-7 0 -22 -5 -34 -11z"/>
<path d="M1083 3588 c-12 -6 -27 -23 -34 -39 -15 -37 2 -82 37 -98 18 -8 295
-11 994 -11 699 0 976 3 994 11 55 26 55 112 0 138 -34 15 -1959 15 -1991 -1z"/>
<path d="M1083 3108 c-12 -6 -27 -23 -34 -39 -15 -37 2 -82 37 -98 18 -8 295
-11 994 -11 699 0 976 3 994 11 55 26 55 112 0 138 -34 15 -1959 15 -1991 -1z"/>
<path d="M2890 2845 c-125 -26 -257 -88 -335 -157 -52 -46 -60 -88 -25 -126
34 -36 75 -29 157 27 127 87 232 116 397 109 85 -4 128 -11 184 -31 255 -90
422 -330 422 -606 0 -107 -18 -182 -71 -289 -69 -141 -211 -262 -369 -314 -91
-30 -262 -36 -350 -13 -261 68 -456 297 -485 573 -8 71 -26 99 -70 108 -22 4
-38 0 -58 -16 -25 -20 -27 -27 -27 -89 0 -81 29 -202 70 -288 80 -172 226
-317 397 -394 113 -52 221 -72 353 -66 169 8 306 53 431 142 l46 33 87 -87 87
-87 -20 -45 c-47 -103 -39 -118 234 -390 129 -129 252 -243 272 -254 51 -27
144 -27 197 -1 50 25 97 72 122 122 25 51 26 146 1 195 -26 52 -477 501 -519
516 -47 17 -77 15 -128 -8 l-44 -20 -85 86 c-75 74 -84 87 -74 103 119 168
172 346 160 531 -14 217 -95 391 -252 539 -91 86 -213 155 -330 187 -83 23
-291 28 -375 10z m1510 -2039 c0 -37 -49 -86 -86 -86 -23 0 -67 39 -246 217
l-218 217 57 58 58 58 217 -218 c179 -179 218 -223 218 -246z"/>
<path d="M1083 2628 c-12 -6 -27 -23 -34 -39 -15 -37 2 -82 37 -98 18 -8 181
-11 550 -11 l526 0 29 29 c37 37 37 65 0 102 l-29 29 -529 -1 c-348 0 -535 -4
-550 -11z"/>
<path d="M2345 2415 c-16 -15 -25 -36 -25 -55 0 -38 39 -80 74 -80 39 0 79 41
79 80 0 24 -7 40 -27 57 -35 30 -71 29 -101 -2z"/>
<path d="M1083 2148 c-12 -6 -27 -23 -34 -39 -15 -37 2 -82 37 -98 17 -8 166
-11 490 -11 l465 0 24 25 c33 32 33 78 0 110 l-24 25 -468 -1 c-306 0 -476 -4
-490 -11z"/>
<path d="M1083 1668 c-12 -6 -27 -23 -34 -39 -15 -37 2 -82 37 -98 18 -8 180
-11 545 -11 l520 0 24 25 c16 15 25 36 25 55 0 19 -9 40 -25 55 l-24 25 -523
-1 c-345 0 -530 -4 -545 -11z"/>
<path d="M1083 1188 c-12 -6 -27 -23 -34 -39 -15 -37 2 -82 37 -98 35 -16
1953 -16 1988 0 55 26 55 112 0 138 -34 15 -1959 15 -1991 -1z"/>
</g>
</svg>
