<?xml version="1.0" standalone="no"?>
<!DOCTYPE svg PUBLIC "-//W3C//DTD SVG 20010904//EN"
 "http://www.w3.org/TR/2001/REC-SVG-20010904/DTD/svg10.dtd">
<svg version="1.0" xmlns="http://www.w3.org/2000/svg"
 width="512.000000pt" height="512.000000pt" viewBox="0 0 512.000000 512.000000"
 preserveAspectRatio="xMidYMid meet">

<g transform="translate(0.000000,512.000000) scale(0.100000,-0.100000)"
fill="#000000" stroke="none">
<path d="M1164 4948 c-12 -5 -27 -21 -33 -34 -8 -18 -11 -217 -11 -669 l0
-644 -432 -3 c-422 -3 -434 -4 -473 -25 -47 -25 -85 -64 -111 -113 -18 -33
-19 -69 -19 -660 0 -621 0 -625 22 -665 25 -47 64 -85 113 -111 33 -18 77 -19
980 -19 903 0 947 1 980 19 49 26 88 64 113 111 21 38 22 53 25 393 l3 352
511 0 c482 0 510 -1 503 -17 -37 -98 -49 -174 -49 -308 1 -122 5 -151 28 -229
50 -167 118 -281 236 -396 312 -306 795 -332 1149 -62 145 110 263 291 313
477 30 114 30 317 -1 430 -49 182 -166 364 -300 466 l-70 54 0 797 c-1 562 -4
804 -12 821 -6 14 -22 30 -36 36 -33 15 -3398 14 -3429 -1z m3316 -859 c0
-673 -1 -711 -17 -704 -64 24 -172 46 -256 52 l-97 6 37 25 c41 28 112 52 154
52 40 0 75 18 88 47 15 34 15 673 0 707 -13 28 -44 42 -114 50 -136 17 -254
135 -271 271 -8 70 -22 101 -50 114 -18 8 -316 11 -1074 11 -758 0 -1056 -3
-1074 -11 -28 -13 -42 -44 -50 -114 -8 -65 -41 -130 -91 -180 -50 -50 -115
-83 -180 -91 -70 -8 -101 -22 -114 -50 -7 -17 -11 -130 -11 -349 l0 -325 -40
0 -40 0 0 600 0 600 1600 0 1600 0 0 -711z m-621 425 c39 -153 182 -296 335
-335 l46 -11 0 -248 0 -248 -46 -11 c-111 -28 -229 -118 -285 -217 -25 -43
-37 -54 -86 -74 -32 -13 -83 -39 -113 -57 l-55 -33 -666 0 -666 0 -5 73 c-7
108 -49 176 -138 223 -30 16 -66 20 -260 24 -207 5 -228 7 -266 27 -23 12 -62
27 -88 34 l-46 11 0 248 0 248 46 11 c153 39 296 182 335 335 l11 46 968 0
968 0 11 -46z m-1724 -1099 c21 -20 25 -34 25 -80 l0 -55 -960 0 -960 0 0 55
c0 46 4 60 25 80 l24 25 911 0 911 0 24 -25z m2230 -165 c125 -39 202 -86 300
-185 100 -99 146 -175 187 -305 33 -108 33 -292 0 -400 -41 -130 -87 -206
-187 -305 -99 -100 -175 -146 -305 -187 -62 -19 -97 -23 -200 -23 -103 0 -138
4 -200 23 -130 41 -206 87 -305 187 -100 99 -146 175 -187 305 -33 108 -33
292 0 400 41 130 87 206 187 305 114 114 219 172 376 205 74 15 255 5 334 -20z
m-2205 -210 l0 -80 -960 0 -960 0 0 80 0 80 960 0 960 0 0 -80z m1293 40 l-28
-40 -552 0 -553 0 0 40 0 40 581 0 580 0 -28 -40z m-1293 -575 l0 -296 -25
-24 -24 -25 -911 0 -911 0 -24 25 -25 24 0 296 0 295 960 0 960 0 0 -295z"/>
<path d="M2760 4382 c-236 -62 -391 -298 -352 -534 35 -209 191 -364 400 -400
311 -53 596 233 544 545 -17 101 -63 190 -137 263 -123 124 -288 170 -455 126z
m252 -170 c59 -26 127 -93 159 -157 35 -72 35 -198 0 -270 -32 -63 -93 -124
-156 -156 -41 -20 -65 -24 -135 -24 -101 0 -159 23 -228 93 -165 165 -94 455
130 528 59 19 171 13 230 -14z"/>
<path d="M4123 3028 c-12 -6 -27 -23 -33 -38 -9 -21 -21 -30 -48 -35 -119 -22
-196 -115 -196 -235 0 -96 44 -168 129 -213 32 -17 65 -22 167 -26 116 -6 129
-8 152 -30 34 -32 34 -74 1 -106 -24 -25 -26 -25 -204 -25 -113 0 -189 -4
-205 -11 -35 -16 -52 -61 -37 -98 17 -40 49 -51 145 -51 83 0 84 0 96 -29 25
-62 115 -62 140 -1 9 21 21 30 48 35 118 22 196 115 197 235 0 53 -5 73 -28
112 -56 96 -131 128 -294 128 -97 0 -106 2 -128 25 -33 32 -33 78 0 110 24 25
26 25 204 25 113 0 189 4 205 11 35 16 52 61 37 98 -17 40 -49 51 -145 51 -83
0 -84 0 -95 29 -12 27 -48 52 -74 50 -7 0 -22 -5 -34 -11z"/>
<path d="M2720 1833 c-51 -19 -892 -512 -922 -541 -21 -20 -44 -50 -53 -69 -9
-18 -20 -33 -26 -33 -5 0 -162 48 -347 106 -369 116 -393 120 -479 75 -67 -34
-98 -79 -138 -203 -31 -95 -36 -124 -33 -180 3 -55 9 -75 34 -110 43 -62 81
-83 238 -133 1386 -435 1593 -498 1648 -499 63 -1 33 -14 563 257 l270 138 55
-16 c30 -10 57 -19 59 -20 2 -2 -3 -26 -9 -53 -16 -61 -7 -98 28 -115 15 -8
97 -36 183 -62 167 -51 197 -53 223 -12 21 32 346 1080 346 1115 0 52 -25 67
-200 121 -91 28 -174 51 -185 51 -35 0 -64 -29 -76 -76 -6 -24 -15 -46 -19
-49 -4 -3 -237 67 -518 155 -426 134 -519 160 -568 159 -33 0 -66 -3 -74 -6z
m592 -303 c281 -88 513 -162 515 -164 4 -4 -175 -593 -183 -605 -2 -2 -32 4
-68 14 -121 33 -130 30 -530 -176 -197 -101 -371 -188 -385 -192 -21 -7 -192
43 -831 243 -443 138 -834 260 -868 272 -55 17 -66 25 -78 54 -13 31 -12 41
17 129 33 106 55 135 96 135 16 -1 190 -51 388 -113 l360 -113 51 -94 c58
-108 97 -144 174 -167 44 -13 65 -14 105 -6 51 11 693 340 727 372 45 44 12
131 -50 131 -17 0 -160 -69 -363 -175 -184 -96 -343 -175 -354 -175 -36 0 -63
28 -110 114 -51 93 -55 124 -22 159 12 13 207 130 432 259 480 276 448 257
458 258 5 0 238 -72 519 -160z m799 -81 c38 -12 69 -26 69 -32 0 -18 -272
-891 -280 -900 -9 -10 -150 33 -150 45 0 6 156 510 271 876 6 17 13 32 16 32
3 0 36 -9 74 -21z"/>
</g>
</svg>
